<svg xmlns="http://www.w3.org/2000/svg" xmlns:xlink="http://www.w3.org/1999/xlink" viewBox="0 0 134.25 83.78"><defs><style>.cls-1{fill:url(#Degradado_sin_nombre_15);}.cls-2{fill:url(#Degradado_sin_nombre_15-2);}.cls-3{fill:url(#Degradado_sin_nombre_15-3);}.cls-4{fill:url(#Degradado_sin_nombre_15-4);}.cls-5{fill:url(#Degradado_sin_nombre_15-5);}.cls-6{fill:url(#Degradado_sin_nombre_15-6);}</style><linearGradient id="Degradado_sin_nombre_15" y1="39.65" x2="134.25" y2="39.65" gradientUnits="userSpaceOnUse"><stop offset="0" stop-color="#ec0086"/><stop offset="1" stop-color="#f78e4d"/></linearGradient><linearGradient id="Degradado_sin_nombre_15-2" x1="28.48" y1="62.15" x2="38.38" y2="62.15" xlink:href="#Degradado_sin_nombre_15"/><linearGradient id="Degradado_sin_nombre_15-3" x1="45.17" y1="78.83" x2="55.06" y2="78.83" xlink:href="#Degradado_sin_nombre_15"/><linearGradient id="Degradado_sin_nombre_15-4" x1="79.28" y1="70.34" x2="92.7" y2="70.34" xlink:href="#Degradado_sin_nombre_15"/><linearGradient id="Degradado_sin_nombre_15-5" x1="73.06" y1="75.18" x2="83.49" y2="75.18" xlink:href="#Degradado_sin_nombre_15"/><linearGradient id="Degradado_sin_nombre_15-6" x1="66.96" y1="80.06" x2="74.74" y2="80.06" xlink:href="#Degradado_sin_nombre_15"/></defs><g id="Capa_2" data-name="Capa 2"><g id="Capa_3" data-name="Capa 3"><path class="cls-1" d="M60.06,78.6l-26-25.95a2.35,2.35,0,0,1,0-3.33l9.18-9.18a2.35,2.35,0,0,1,3.35,0L60.32,54.23a2.37,2.37,0,0,0,3.31.07l.53-.51a2.35,2.35,0,0,0,0-3.4L51.37,37.94a2.36,2.36,0,0,1,0-3.38l9.54-9.27a2.36,2.36,0,0,1,3.31,0L79,40.06a2.35,2.35,0,0,0,1.54.68l11.2.6a2.35,2.35,0,0,1,1.54.68l9.27,9.27A3.22,3.22,0,0,1,102.4,56a3.29,3.29,0,0,1-4.51-.17l-7.46-7.46a2.36,2.36,0,0,0-1.54-.69l-11.2-.59a2.36,2.36,0,0,1-1.54-.69l-12-12a2.34,2.34,0,0,0-3.3,0l-.23.22a2.36,2.36,0,0,0,0,3.38L73.49,50.45a2.36,2.36,0,0,1,0,3.4l-10,9.5a2.37,2.37,0,0,1-3.31-.07L46.57,49.34a2.35,2.35,0,0,0-3.35,0h0a2.35,2.35,0,0,0,0,3.33l17,17a2.36,2.36,0,0,0,3.28,0L81.65,52.44a2.34,2.34,0,0,1,3.26,0l9.87,9.62a23,23,0,0,0,23.7,5.56c4.49-1.58,7.3-4.14,8.61-7.82a12.58,12.58,0,0,0-2-12.06c-3.1-3.82-7.86-5.26-14.14-4.3l-4.19.64.49-4.16a10.62,10.62,0,0,0-6.55-10.56c-7.58-3.15-12.65.66-12.7.7l-4,3.06-1.14-4.87a34.25,34.25,0,0,0-5.39-11,25.63,25.63,0,0,0-21-10.83,31.88,31.88,0,0,0-11.9,3.22c-7.92,3.95-12.73,10.75-14.3,20.22l-.42,2.53-2.56.16A31.75,31.75,0,0,0,16.94,35.4C10.53,38.45,7,43.31,6.51,49.83a21.54,21.54,0,0,0,10,20c7.17,4.5,15.23,3.58,23.94-2.73a3.22,3.22,0,1,1,3.78,5.22c-13.76,10-24.53,7.12-31.14,3a28,28,0,0,1-12.95-26c.69-8.93,5.63-15.8,14.28-19.85a38.93,38.93,0,0,1,10-3C27.29,13.45,35.43,7,41.94,3.78A37.91,37.91,0,0,1,56.38,0h.13A32.23,32.23,0,0,1,82.8,13.66,41.93,41.93,0,0,1,87.87,23a20.33,20.33,0,0,1,15.26.48,16.77,16.77,0,0,1,10.36,13.31c8.65-.32,13.74,3.48,16.56,7A19.05,19.05,0,0,1,133.16,62c-2,5.56-6.19,9.51-12.54,11.75a29.44,29.44,0,0,1-30.38-7.07L84.85,61.4a2.36,2.36,0,0,0-3.27,0L63.34,78.65A2.36,2.36,0,0,1,60.06,78.6Z"/><circle class="cls-2" cx="33.43" cy="62.15" r="4.95"/><circle class="cls-3" cx="50.12" cy="78.83" r="4.95"/><path class="cls-4" d="M83.17,64.52l-3.53,3.54A1.22,1.22,0,0,0,79.89,70l11,6.36a1.22,1.22,0,0,0,1.59-1.79L85,64.65A1.22,1.22,0,0,0,83.17,64.52Z"/><path class="cls-5" d="M76.09,70.65,73.34,73.4a1,1,0,0,0,.2,1.49l8.52,5a1,1,0,0,0,1.23-1.39l-5.77-7.69A1,1,0,0,0,76.09,70.65Z"/><path class="cls-6" d="M69.22,76.68l-2,2a.71.71,0,0,0,.15,1.12l6.35,3.69a.71.71,0,0,0,.93-1l-4.31-5.74A.71.71,0,0,0,69.22,76.68Z"/></g></g></svg>