<svg xmlns="http://www.w3.org/2000/svg" xmlns:xlink="http://www.w3.org/1999/xlink" viewBox="0 0 283.76 68.89"><defs><style>.cls-1{fill:url(#Degradado_sin_nombre_15);}.cls-2{fill:url(#Degradado_sin_nombre_15-2);}.cls-3{fill:url(#Degradado_sin_nombre_15-3);}.cls-4{fill:url(#Degradado_sin_nombre_15-4);}.cls-5{fill:url(#Degradado_sin_nombre_15-5);}.cls-6{fill:url(#Degradado_sin_nombre_15-6);}.cls-7{font-size:30px;fill:#faa50c;font-family:Poppins-Regular, Poppins;}</style><linearGradient id="Degradado_sin_nombre_15" y1="32.6" x2="110.39" y2="32.6" gradientUnits="userSpaceOnUse"><stop offset="0" stop-color="#ec0086"/><stop offset="1" stop-color="#f78e4d"/></linearGradient><linearGradient id="Degradado_sin_nombre_15-2" x1="23.42" y1="51.1" x2="31.56" y2="51.1" xlink:href="#Degradado_sin_nombre_15"/><linearGradient id="Degradado_sin_nombre_15-3" x1="37.14" y1="64.82" x2="45.28" y2="64.82" xlink:href="#Degradado_sin_nombre_15"/><linearGradient id="Degradado_sin_nombre_15-4" x1="65.19" y1="57.84" x2="76.22" y2="57.84" xlink:href="#Degradado_sin_nombre_15"/><linearGradient id="Degradado_sin_nombre_15-5" x1="60.08" y1="61.82" x2="68.65" y2="61.82" xlink:href="#Degradado_sin_nombre_15"/><linearGradient id="Degradado_sin_nombre_15-6" x1="55.06" y1="65.83" x2="61.46" y2="65.83" xlink:href="#Degradado_sin_nombre_15"/></defs><g id="Capa_2" data-name="Capa 2"><g id="Capa_3" data-name="Capa 3"><path class="cls-1" d="M49.38,64.63,28,43.29a2,2,0,0,1,0-2.74L35.59,33a1.92,1.92,0,0,1,2.75,0L49.6,44.59a1.94,1.94,0,0,0,2.72.06l.44-.42a1.93,1.93,0,0,0,0-2.79L42.24,31.2a1.94,1.94,0,0,1,0-2.78l7.85-7.62a1.93,1.93,0,0,1,2.71,0L64.93,32.94a1.9,1.9,0,0,0,1.26.56L75.4,34a2,2,0,0,1,1.27.57l7.62,7.62A2.64,2.64,0,0,1,84.2,46a2.7,2.7,0,0,1-3.71-.14l-6.13-6.13a1.9,1.9,0,0,0-1.27-.56l-9.21-.49a2,2,0,0,1-1.26-.57l-9.87-9.86a1.93,1.93,0,0,0-2.72,0l-.19.18a1.94,1.94,0,0,0,0,2.78L60.43,41.49a1.93,1.93,0,0,1,0,2.79l-8.24,7.81A1.94,1.94,0,0,1,49.45,52L38.29,40.57a1.93,1.93,0,0,0-2.75,0h0a1.93,1.93,0,0,0,0,2.74l13.94,14a1.94,1.94,0,0,0,2.7,0l15-14.16a1.94,1.94,0,0,1,2.68,0l8.12,7.91a18.88,18.88,0,0,0,19.48,4.58c3.69-1.3,6-3.4,7.08-6.43a10.32,10.32,0,0,0-1.67-9.92c-2.55-3.14-6.47-4.33-11.64-3.54l-3.44.53.41-3.42a8.75,8.75,0,0,0-5.39-8.68c-6.23-2.59-10.4.54-10.45.57l-3.25,2.52-.94-4a28.19,28.19,0,0,0-4.44-9A21.07,21.07,0,0,0,46.43,5.3,26.42,26.42,0,0,0,36.64,8c-6.51,3.25-10.47,8.84-11.76,16.63l-.34,2.08-2.11.13a26.38,26.38,0,0,0-8.5,2.31C8.66,31.62,5.77,35.61,5.35,41a17.74,17.74,0,0,0,8.18,16.47c5.9,3.7,12.53,2.94,19.69-2.25a2.65,2.65,0,0,1,3.11,4.3C25,67.68,16.16,65.34,10.72,61.93A23,23,0,0,1,.07,40.56c.57-7.34,4.63-13,11.75-16.32A32,32,0,0,1,20,21.75,26.34,26.34,0,0,1,34.48,3.11,31.29,31.29,0,0,1,46.36,0h.1A26.47,26.47,0,0,1,68.08,11.23a34.43,34.43,0,0,1,4.17,7.65,16.69,16.69,0,0,1,12.55.39,13.77,13.77,0,0,1,8.52,11c7.11-.27,11.29,2.86,13.62,5.72a15.65,15.65,0,0,1,2.56,15c-1.63,4.57-5.1,7.82-10.32,9.65a24.2,24.2,0,0,1-25-5.81l-4.43-4.32a2,2,0,0,0-2.69,0l-15,14.2A1.94,1.94,0,0,1,49.38,64.63Z"/><circle class="cls-2" cx="27.49" cy="51.1" r="4.07"/><circle class="cls-3" cx="41.21" cy="64.82" r="4.07"/><path class="cls-4" d="M68.39,53.05,65.48,56a1,1,0,0,0,.21,1.58l9,5.23A1,1,0,0,0,76,61.3L69.9,53.16A1,1,0,0,0,68.39,53.05Z"/><path class="cls-5" d="M62.57,58.1l-2.26,2.26a.77.77,0,0,0,.16,1.22l7,4.07a.78.78,0,0,0,1-1.14l-4.75-6.33A.77.77,0,0,0,62.57,58.1Z"/><path class="cls-6" d="M56.92,63.05l-1.69,1.69a.58.58,0,0,0,.12.91l5.23,3a.58.58,0,0,0,.76-.85L57.8,63.12A.58.58,0,0,0,56.92,63.05Z"/><text class="cls-7" transform="translate(113.4 51.21) scale(0.99 1)">SerCompra</text></g></g></svg>